<svg width="359" height="358" viewBox="0 0 359 358" fill="none" xmlns="http://www.w3.org/2000/svg">
<path d="M252 79H259.5C259.5 74.8579 256.142 71.5 252 71.5V79ZM229.966 59L237.344 57.653C236.693 54.0893 233.588 51.5 229.966 51.5V59ZM252 286V293.5C256.142 293.5 259.5 290.142 259.5 286H252ZM232.27 299V306.5C235.126 306.5 237.734 304.878 238.997 302.316L232.27 299ZM128.73 299L122.003 302.316C123.266 304.878 125.874 306.5 128.73 306.5V299ZM109 286H101.5C101.5 290.142 104.858 293.5 109 293.5V286ZM109 79V71.5C107.011 71.5 105.103 72.2902 103.697 73.6967C102.29 75.1032 101.5 77.0109 101.5 79H109ZM131.035 59V51.5C127.412 51.5 124.307 54.0893 123.656 57.653L131.035 59ZM252 71.5C245.353 71.5 238.892 66.1343 237.344 57.653L222.587 60.347C225.206 74.6881 236.892 86.5 252 86.5V71.5ZM259.5 286V79H244.5V286H259.5ZM238.997 302.316C241.746 296.742 246.759 293.5 252 293.5V278.5C240.228 278.5 230.434 285.764 225.544 295.684L238.997 302.316ZM128.73 306.5H232.27V291.5H128.73V306.5ZM109 293.5C114.241 293.5 119.254 296.742 122.003 302.316L135.456 295.684C130.566 285.764 120.772 278.5 109 278.5V293.5ZM101.5 79L101.5 286H116.5L116.5 79H101.5ZM123.656 57.653C122.108 66.1343 115.647 71.5 109 71.5V86.5C124.108 86.5 135.794 74.6881 138.413 60.347L123.656 57.653ZM229.966 51.5H131.035V66.5H229.966V51.5Z" fill="black"/>
<line x1="108" y1="282" x2="252" y2="282" stroke="black" stroke-width="10"/>
<line x1="108" y1="82" x2="252" y2="82" stroke="black" stroke-width="10"/>
<path d="M139.78 38.3276C137.199 37.3445 134.311 38.6395 133.328 41.22C132.345 43.8005 133.64 46.6894 136.22 47.6724L139.78 38.3276ZM181.78 54.3276L139.78 38.3276L136.22 47.6724L178.22 63.6724L181.78 54.3276Z" fill="black"/>
</svg>
