<svg width="359" height="358" viewBox="0 0 359 358" fill="none" xmlns="http://www.w3.org/2000/svg">
<g clip-path="url(#clip0_216_4)">
<path d="M277.063 54.5313H284.563C284.563 50.3891 281.205 47.0313 277.063 47.0313V54.5313ZM247.359 27.5695L254.737 26.2225C254.086 22.6588 250.981 20.0695 247.359 20.0695V27.5695ZM277.063 333.586V341.086C281.205 341.086 284.563 337.728 284.563 333.586H277.063ZM250.466 351.111V358.611C253.322 358.611 255.93 356.989 257.193 354.428L250.466 351.111ZM110.883 351.111L104.157 354.428C105.419 356.989 108.027 358.611 110.883 358.611V351.111ZM84.2861 333.586H76.7861C76.7861 337.728 80.144 341.086 84.2861 341.086V333.586ZM84.2861 54.5313V47.0313C80.144 47.0313 76.7861 50.3891 76.7861 54.5313H84.2861ZM113.991 27.5695V20.0695C110.368 20.0695 107.263 22.6588 106.613 26.2225L113.991 27.5695ZM277.063 47.0313C266.63 47.0313 257.01 38.6759 254.737 26.2225L239.981 28.9164C243.324 47.2296 258.168 62.0313 277.063 62.0313V47.0313ZM284.563 333.586V54.5313H269.563V333.586H284.563ZM257.193 354.428C261.271 346.156 268.861 341.086 277.063 341.086V326.086C262.33 326.086 249.959 335.178 243.739 347.795L257.193 354.428ZM110.883 358.611H250.466V343.611H110.883V358.611ZM84.2862 341.086C92.4886 341.086 100.078 346.156 104.157 354.428L117.61 347.795C111.39 335.178 99.0192 326.086 84.2862 326.086V341.086ZM84.2861 341.086H84.2862V326.086H84.2861V341.086ZM76.7861 54.5313V333.586H91.7861V54.5313H76.7861ZM84.2862 47.0313H84.2861V62.0313H84.2862V47.0313ZM106.613 26.2225C104.339 38.6759 94.7195 47.0313 84.2862 47.0313V62.0313C103.181 62.0313 118.025 47.2296 121.369 28.9164L106.613 26.2225ZM247.359 20.0695H113.991V35.0695H247.359V20.0695Z" fill="black"/>
<line x1="83" y1="330" x2="277" y2="330" stroke="black" stroke-width="10"/>
<line x1="83" y1="61" x2="277" y2="61" stroke="black" stroke-width="10"/>
<path d="M125.161 1.32757C122.58 0.344516 119.691 1.63952 118.708 4.22003C117.725 6.80055 119.02 9.68939 121.601 10.6724L125.161 1.32757ZM181.78 22.897L125.161 1.32757L121.601 10.6724L178.221 32.2419L181.78 22.897Z" fill="black"/>
<circle cx="180" cy="189" r="61" stroke="black" stroke-width="6"/>
</g>
<defs>
<clipPath id="clip0_216_4">
<rect width="358" height="358" fill="white" transform="translate(0.526367)"/>
</clipPath>
</defs>
</svg>
