<svg width="50" height="29" viewBox="0 0 50 29" fill="none" xmlns="http://www.w3.org/2000/svg">
<path d="M0.130859 28.8466V20.1193H2.50018V23.5284H5.63654V20.1193H8.00586V28.8466H5.63654V25.4375H2.50018V28.8466H0.130859Z" fill="white"/>
<path d="M17.5854 24.4829C17.5854 25.4545 17.3965 26.2741 17.0186 26.9418C16.6408 27.6065 16.1309 28.1108 15.4888 28.4545C14.8468 28.7954 14.1309 28.9659 13.3411 28.9659C12.5456 28.9659 11.8269 28.794 11.1848 28.4503C10.5456 28.1037 10.0371 27.598 9.65927 26.9332C9.28427 26.2656 9.09677 25.4489 9.09677 24.4829C9.09677 23.5114 9.28427 22.6932 9.65927 22.0284C10.0371 21.3608 10.5456 20.8565 11.1848 20.5156C11.8269 20.1719 12.5456 20 13.3411 20C14.1309 20 14.8468 20.1719 15.4888 20.5156C16.1309 20.8565 16.6408 21.3608 17.0186 22.0284C17.3965 22.6932 17.5854 23.5114 17.5854 24.4829ZM15.1479 24.4829C15.1479 23.9602 15.0783 23.5199 14.9391 23.1619C14.8027 22.8011 14.5996 22.5284 14.3297 22.3437C14.0627 22.1562 13.7331 22.0625 13.3411 22.0625C12.949 22.0625 12.6181 22.1562 12.3482 22.3437C12.0811 22.5284 11.878 22.8011 11.7388 23.1619C11.6025 23.5199 11.5343 23.9602 11.5343 24.4829C11.5343 25.0057 11.6025 25.4474 11.7388 25.8082C11.878 26.1662 12.0811 26.4389 12.3482 26.6264C12.6181 26.8111 12.949 26.9034 13.3411 26.9034C13.7331 26.9034 14.0627 26.8111 14.3297 26.6264C14.5996 26.4389 14.8027 26.1662 14.9391 25.8082C15.0783 25.4474 15.1479 25.0057 15.1479 24.4829Z" fill="white"/>
<path d="M18.6816 28.8466V20.1193H21.051V26.9375H24.5794V28.8466H18.6816Z" fill="white"/>
<path d="M28.8951 28.8466H25.5371V20.1193H28.861C29.7587 20.1193 30.5343 20.294 31.1877 20.6435C31.8439 20.99 32.3496 21.49 32.7047 22.1435C33.0627 22.794 33.2417 23.5739 33.2417 24.4829C33.2417 25.392 33.0641 26.1733 32.709 26.8267C32.3539 27.4773 31.851 27.9773 31.2005 28.3267C30.5499 28.6733 29.7814 28.8466 28.8951 28.8466ZM27.9064 26.8352H28.8098C29.2417 26.8352 29.6096 26.7656 29.9135 26.6264C30.2203 26.4872 30.4533 26.2472 30.6124 25.9062C30.7743 25.5653 30.8553 25.0909 30.8553 24.4829C30.8553 23.875 30.7729 23.4006 30.6081 23.0597C30.4462 22.7187 30.2076 22.4787 29.8922 22.3395C29.5797 22.2003 29.1962 22.1307 28.7417 22.1307H27.9064V26.8352Z" fill="white"/>
<path d="M34.3379 28.8466V20.1193H40.6277V22.0284H36.7072V23.5284H40.3038V25.4375H36.7072V26.9375H40.6106V28.8466H34.3379Z" fill="white"/>
<path d="M41.8027 28.8466V20.1193H45.5698C46.2175 20.1193 46.7843 20.2372 47.2701 20.473C47.7559 20.7088 48.1337 21.0483 48.4036 21.4915C48.6735 21.9347 48.8084 22.4659 48.8084 23.0852C48.8084 23.7102 48.6692 24.2372 48.3908 24.6662C48.1152 25.0952 47.7274 25.419 47.2274 25.6378L49.0982 28.8466H46.5243L45 25.9659L45.0073 24.125H45.2775C45.5559 24.125 45.5229 24.0909 45.7189 24.0227C45.9178 23.9517 46.0698 23.8395 46.1749 23.6861C46.2828 23.5327 46.3368 23.3324 46.3368 23.0852C46.3368 22.8352 46.2828 22.6321 46.1749 22.4758C46.0698 22.3168 45.9178 22.2003 45.7189 22.1264C45.5229 22.0497 45.2857 22.0114 45.0073 22.0114H44.172V28.8466H41.8027Z" fill="white"/>
<path d="M10.1082 5.72572C10.0616 5.15429 9.84299 4.70857 9.45242 4.38857C9.06768 4.06857 8.48182 3.90857 7.69485 3.90857C7.19352 3.90857 6.78254 3.96857 6.46192 4.08857C6.14713 4.20286 5.91396 4.36 5.76239 4.56C5.61083 4.76 5.53213 4.98857 5.5263 5.24571C5.51464 5.45714 5.55253 5.64857 5.63997 5.82C5.73324 5.98571 5.87898 6.13714 6.07718 6.27429C6.27538 6.40571 6.52896 6.52571 6.83792 6.63429C7.14688 6.74286 7.51414 6.84 7.93968 6.92571L9.4087 7.23429C10.3997 7.44 11.2479 7.71143 11.9532 8.04857C12.6586 8.38572 13.2357 8.78286 13.6846 9.24C14.1335 9.69143 14.4628 10.2 14.6727 10.7657C14.8884 11.3314 14.9991 11.9486 15.005 12.6171C14.9991 13.7714 14.7047 14.7486 14.1218 15.5486C13.5388 16.3486 12.7052 16.9571 11.621 17.3743C10.5425 17.7914 9.24547 18 7.72982 18C6.17337 18 4.81511 17.7743 3.65505 17.3229C2.50083 16.8714 1.60309 16.1771 0.961856 15.24C0.326448 14.2971 0.00582942 13.0914 0 11.6229H4.61691C4.64606 12.16 4.78305 12.6114 5.02788 12.9771C5.27272 13.3429 5.61666 13.62 6.05969 13.8086C6.50856 13.9971 7.04195 14.0914 7.65987 14.0914C8.17869 14.0914 8.61298 14.0286 8.96275 13.9029C9.31251 13.7771 9.57775 13.6029 9.75847 13.38C9.93918 13.1571 10.0324 12.9029 10.0383 12.6171C10.0324 12.3486 9.94209 12.1143 9.76721 11.9143C9.59816 11.7086 9.31834 11.5257 8.92777 11.3657C8.5372 11.2 8.00964 11.0457 7.34508 10.9029L5.56128 10.5257C3.97567 10.1886 2.72526 9.62571 1.81004 8.83714C0.900646 8.04286 0.448866 6.96 0.454696 5.58857C0.448866 4.47429 0.751997 3.5 1.36409 2.66571C1.98201 1.82571 2.83602 1.17143 3.92612 0.702857C5.02205 0.234286 6.2783 0 7.69485 0C9.14055 0 10.391 0.237143 11.4461 0.711429C12.5012 1.18571 13.3144 1.85429 13.8857 2.71714C14.4628 3.57429 14.7543 4.57714 14.7601 5.72572H10.1082Z" fill="white"/>
<path d="M27.4522 0.24H32.314V11.4857C32.314 12.8229 31.9875 13.98 31.3346 14.9571C30.6876 15.9286 29.784 16.68 28.624 17.2114C27.4639 17.7371 26.1173 18 24.5842 18C23.0394 18 21.6869 17.7371 20.5269 17.2114C19.3668 16.68 18.4633 15.9286 17.8162 14.9571C17.175 13.98 16.8543 12.8229 16.8543 11.4857V0.24H21.7161V11.0743C21.7161 11.6171 21.8385 12.1029 22.0833 12.5314C22.3282 12.9543 22.6663 13.2857 23.0977 13.5257C23.5349 13.7657 24.0304 13.8857 24.5842 13.8857C25.1438 13.8857 25.6393 13.7657 26.0707 13.5257C26.502 13.2857 26.8402 12.9543 27.085 12.5314C27.3298 12.1029 27.4522 11.6171 27.4522 11.0743V0.24Z" fill="white"/>
<path d="M34.6246 17.7943V0.24H42.3545C43.6836 0.24 44.8465 0.497143 45.8434 1.01143C46.8402 1.52571 47.6155 2.24857 48.1693 3.18C48.7231 4.11143 49 5.2 49 6.44571C49 7.70286 48.7144 8.79143 48.1431 9.71143C47.5776 10.6314 46.7819 11.34 45.7559 11.8371C44.7358 12.3343 43.5437 12.5829 42.1796 12.5829H40.7718V8.88H41.2002C41.7715 8.88 42.2583 8.78286 42.6605 8.58857C43.0686 8.38857 43.3804 8.10571 43.5961 7.74C43.8176 7.37429 43.9284 6.94286 43.9284 6.44571C43.9284 5.94286 43.8176 5.51429 43.5961 5.16C43.3804 4.8 43.0686 4.52571 42.6605 4.33714C42.2583 4.14286 41.7715 4.04571 41.2002 4.04571H39.4864V17.7943H34.6246Z" fill="white"/>
</svg>
