<svg width="801" height="684" viewBox="0 0 801 684" fill="none" xmlns="http://www.w3.org/2000/svg">
<path d="M133.042 0.620884L133.5 0.582542V0.503322C133.83 0.507729 134.157 0.516505 134.48 0.529547L134.5 0.530362L134.52 0.529547C134.843 0.516505 135.17 0.507729 135.5 0.503322V0.582542L135.958 0.620884C148.214 1.6462 155.029 9.0366 162.337 16.9863L162.356 17.007C166.742 21.7787 171.309 26.7472 177.318 30.5137C183.351 34.2948 190.817 36.8553 201 36.8553C211.183 36.8553 218.649 34.2948 224.682 30.5137C230.691 26.7472 235.258 21.7786 239.644 17.0069L239.663 16.9863C246.971 9.0366 253.786 1.6462 266.042 0.620884L266.5 0.582542V0.503322C266.83 0.507729 267.157 0.516505 267.48 0.529547L267.5 0.530362L267.52 0.529547C267.843 0.516505 268.17 0.507729 268.5 0.503322V0.582542L268.958 0.620884C281.214 1.6462 288.029 9.0366 295.337 16.9863L295.356 17.0069C299.742 21.7786 304.309 26.7472 310.318 30.5137C316.351 34.2948 323.818 36.8553 334 36.8553C344.183 36.8553 351.649 34.2948 357.682 30.5137C363.691 26.7472 368.258 21.7786 372.644 17.0069L372.663 16.9863C379.971 9.03661 386.786 1.6462 399.042 0.620884L399.5 0.582542V0.503322C399.83 0.507729 400.157 0.516505 400.48 0.529547L400.5 0.530362L400.52 0.529547C400.843 0.516505 401.17 0.507729 401.5 0.503322V0.582542L401.958 0.620884C414.214 1.6462 421.029 9.0366 428.337 16.9863L428.356 17.0069C432.742 21.7786 437.309 26.7472 443.318 30.5137C449.351 34.2948 456.818 36.8553 467 36.8553C477.183 36.8553 484.649 34.2948 490.682 30.5137C496.691 26.7472 501.258 21.7786 505.644 17.0069L505.663 16.9863C512.971 9.0366 519.786 1.6462 532.042 0.620884L532.5 0.582542V0.503322C532.83 0.507729 533.157 0.516505 533.48 0.529547L533.5 0.530362L533.52 0.529547C533.843 0.516505 534.17 0.507729 534.5 0.503322V0.582542L534.958 0.620884C547.214 1.6462 554.029 9.0366 561.337 16.9863L561.356 17.0067C565.742 21.7785 570.309 26.7471 576.318 30.5137C582.351 34.2948 589.818 36.8553 600 36.8553C610.182 36.8553 617.649 34.2948 623.682 30.5137C629.691 26.7471 634.258 21.7785 638.644 17.0067L638.663 16.9863C645.971 9.0366 652.786 1.6462 665.042 0.620884L665.5 0.582542V0.503322C665.83 0.507729 666.157 0.516505 666.48 0.529547L666.5 0.530362L666.52 0.529547C666.843 0.516505 667.17 0.507729 667.5 0.503322V0.582542L667.958 0.620884C680.214 1.6462 687.029 9.0366 694.337 16.9863L694.356 17.0067C698.742 21.7785 703.309 26.7471 709.318 30.5137C715.351 34.2948 722.818 36.8553 733 36.8553C743.182 36.8553 750.649 34.2948 756.682 30.5137C762.691 26.7471 767.258 21.7785 771.644 17.0067L771.663 16.9863C779.438 8.52816 786.666 0.687751 800.5 0.50332V683.5H0.5V0.50332C14.3338 0.687751 21.5618 8.52817 29.3369 16.9863L29.3558 17.007C33.7421 21.7787 38.3094 26.7472 44.3182 30.5137C50.3506 34.2948 57.8175 36.8553 68 36.8553C78.1825 36.8553 85.6495 34.2948 91.6818 30.5137C97.6907 26.7472 102.258 21.7786 106.644 17.0069L106.663 16.9863C113.971 9.0366 120.786 1.6462 133.042 0.620884Z" fill="white" stroke="white"/>
</svg>
