<svg width="358" height="358" viewBox="0 0 358 358" fill="none" xmlns="http://www.w3.org/2000/svg">
<path d="M25.5 244.222C25.5 244.222 110.5 196.722 178.75 244.222C247 291.722 332 244.222 332 244.222" stroke="black" stroke-width="15" stroke-linecap="round"/>
<path d="M25.5 279.333C25.5 279.333 110.5 231.833 178.75 279.333C247 326.833 332 279.333 332 279.333" stroke="black" stroke-width="15" stroke-linecap="round"/>
<path d="M266.56 233.896L266.65 233.878C271.928 221.993 274.861 208.838 274.861 195C274.861 141.981 231.816 99 178.719 99C125.621 99 82.5762 141.981 82.5762 195C82.5762 197.986 82.7127 200.939 82.9798 203.855C84.5808 203.487 86.2141 203.136 87.877 202.805C114.845 197.436 150.394 197.263 182.245 219.397C210.046 238.718 241.469 238.891 266.56 233.896Z" fill="black"/>
<line x1="179.5" y1="67.5" x2="179.5" y2="46.5" stroke="black" stroke-width="15" stroke-linecap="round"/>
<line x1="278.97" y1="102.006" x2="293.946" y2="87.0295" stroke="black" stroke-width="15" stroke-linecap="round"/>
<line x1="7.5" y1="-7.5" x2="28.6796" y2="-7.5" transform="matrix(-0.707107 -0.707107 -0.707107 0.707107 78.9062 112.612)" stroke="black" stroke-width="15" stroke-linecap="round"/>
<line x1="7.5" y1="-7.5" x2="30.028" y2="-7.5" transform="matrix(-1 0 0 1 57.528 192.712)" stroke="black" stroke-width="15" stroke-linecap="round"/>
<line x1="7.5" y1="-7.5" x2="30.028" y2="-7.5" transform="matrix(-1 0 0 1 338 192.712)" stroke="black" stroke-width="15" stroke-linecap="round"/>
</svg>
