<svg width="358" height="358" viewBox="0 0 358 358" fill="none" xmlns="http://www.w3.org/2000/svg">
<path d="M245.461 185.443C245.512 168.846 239.285 152.842 228.027 140.634C216.77 128.426 201.312 120.914 184.746 119.601C168.181 118.288 151.73 123.27 138.685 133.552C125.64 143.834 116.964 158.656 114.393 175.053C121.161 174.514 127.914 174.671 134.653 175.523C154.531 178.022 172.967 186.177 190.109 196.156C200.555 202.254 213.768 203.988 227.658 202.078C233.529 201.255 239.134 199.844 244.255 198.066C245.059 193.971 245.461 189.773 245.461 185.443ZM106.565 102.635L105.535 101.783C104.024 100.735 102.176 100.29 100.353 100.536C98.5304 100.782 96.8662 101.701 95.6882 103.112C94.5103 104.522 93.9041 106.323 93.9891 108.157C94.0742 109.992 94.8443 111.729 96.1476 113.025L108.772 125.633L109.802 126.486C111.312 127.534 113.161 127.978 114.984 127.732C116.806 127.486 118.471 126.568 119.649 125.157C120.827 123.746 121.433 121.946 121.348 120.111C121.263 118.276 120.493 116.54 119.189 115.244L106.565 102.635ZM263.441 111.996C264.474 110.487 264.906 108.647 264.653 106.837C264.4 105.026 263.481 103.375 262.074 102.205C260.668 101.036 258.875 100.431 257.046 100.511C255.218 100.591 253.485 101.348 252.185 102.635L239.546 115.244L238.693 116.273C237.661 117.782 237.229 119.621 237.481 121.432C237.734 123.242 238.654 124.894 240.06 126.063C241.467 127.233 243.259 127.837 245.088 127.758C246.916 127.678 248.65 126.921 249.949 125.633L262.588 113.025L263.441 111.996ZM186.651 74.0386C186.323 72.2318 185.33 70.613 183.868 69.501C182.405 68.3889 180.578 67.8642 178.747 68.0301C176.916 68.196 175.214 69.0405 173.975 70.3973C172.737 71.7542 172.052 73.525 172.055 75.3611V93.1864L172.173 94.509C172.5 96.3157 173.493 97.9345 174.956 99.0465C176.419 100.159 178.246 100.683 180.077 100.517C181.908 100.352 183.61 99.507 184.848 98.1502C186.087 96.7933 186.772 95.0225 186.769 93.1864V75.3464L186.651 74.0386ZM86.8928 213.702C102.43 205.237 116.85 202.915 130.989 204.679C145.32 206.486 159.828 212.541 175.277 221.549C192.978 231.85 213.297 233.731 231.689 231.189C250.052 228.647 267.149 221.622 278.92 213.231C280.508 212.097 281.58 210.379 281.9 208.456C282.22 206.532 281.762 204.56 280.627 202.974C279.491 201.388 277.771 200.317 275.845 199.997C273.919 199.678 271.945 200.135 270.357 201.269C260.675 208.176 245.844 214.392 229.674 216.626C213.533 218.86 196.774 217.067 182.693 208.852C166.39 199.359 149.926 192.247 132.814 190.101C115.525 187.941 98.0163 190.895 79.845 200.799C78.9967 201.261 78.2479 201.886 77.6414 202.637C77.0348 203.388 76.5823 204.251 76.3097 205.177C76.0371 206.103 75.9498 207.074 76.0528 208.033C76.1557 208.993 76.4468 209.923 76.9096 210.77C77.8442 212.481 79.4211 213.751 81.2933 214.301C82.2203 214.573 83.1919 214.66 84.1527 214.557C85.1135 214.455 86.0445 214.164 86.8928 213.702ZM130.989 234.069C116.85 232.306 102.43 234.627 86.8928 243.092C86.0445 243.555 85.1133 243.847 84.1521 243.951C83.191 244.054 82.2188 243.968 81.2911 243.696C79.4175 243.148 77.8388 241.879 76.9023 240.168C76.4385 239.32 76.1464 238.39 76.0426 237.43C75.9388 236.47 76.0253 235.499 76.2971 234.573C76.8463 232.702 78.1172 231.125 79.8303 230.19C98.0163 220.285 115.525 217.331 132.829 219.491C149.926 221.637 166.39 228.749 182.708 238.242C196.774 246.442 213.533 248.25 229.674 246.031C245.829 243.783 260.675 237.581 270.357 230.66C271.945 229.526 273.919 229.068 275.845 229.388C277.771 229.707 279.491 230.778 280.627 232.364C281.762 233.951 282.22 235.922 281.9 237.846C281.58 239.77 280.508 241.488 278.92 242.622C267.149 250.998 250.037 258.037 231.689 260.579C213.297 263.121 192.978 261.24 175.277 250.939C159.828 241.931 145.32 235.877 130.989 234.069ZM86.8928 272.497C102.43 264.033 116.85 261.711 130.989 263.474C145.32 265.282 159.828 271.336 175.277 280.344C192.978 290.646 213.297 292.526 231.689 289.984C250.052 287.442 267.149 280.418 278.92 272.027C280.508 270.893 281.58 269.175 281.9 267.251C282.22 265.328 281.762 263.356 280.627 261.769C279.491 260.183 277.771 259.112 275.845 258.793C273.919 258.473 271.945 258.931 270.357 260.065C260.675 266.972 245.844 273.188 229.674 275.421C213.533 277.655 196.774 275.862 182.693 267.648C166.39 258.154 149.926 251.042 132.814 248.896C115.525 246.736 98.0163 249.69 79.845 259.595C78.1319 260.528 76.8602 262.103 76.3097 263.973C75.7592 265.843 75.975 267.854 76.9096 269.565C77.8442 271.276 79.4211 272.546 81.2933 273.096C83.1655 273.646 85.1797 273.43 86.8928 272.497Z" fill="black"/>
</svg>
